<?xml version="1.0" standalone="no"?>
<!DOCTYPE svg PUBLIC "-//W3C//DTD SVG 20010904//EN"
 "http://www.w3.org/TR/2001/REC-SVG-20010904/DTD/svg10.dtd">
<svg version="1.0" xmlns="http://www.w3.org/2000/svg"
 width="128.000000pt" height="128.000000pt" viewBox="0 0 128.000000 128.000000"
 preserveAspectRatio="xMidYMid meet">
<metadata>
Created by potrace 1.11, written by Peter Selinger 2001-2013
</metadata>
<g transform="translate(0.000000,128.000000) scale(0.100000,-0.100000)"
fill="#000000" stroke="none">
<path d="M32 1017 c-15 -17 -15 -757 0 -774 16 -19 250 -17 315 2 61 18 107
65 124 127 7 27 12 127 12 268 0 205 -2 230 -20 271 -22 49 -67 89 -122 108
-49 16 -295 15 -309 -2z m302 -77 c17 -8 39 -31 50 -50 19 -32 21 -53 23 -251
1 -201 0 -220 -19 -258 -29 -60 -63 -74 -185 -79 -57 -2 -103 0 -103 4 -1 13
-1 571 0 618 l0 38 103 -4 c61 -2 114 -10 131 -18z"/>
<path d="M646 1008 c-11 -19 -14 -89 -14 -391 0 -346 1 -368 18 -377 27 -14
76 -12 89 3 7 9 12 103 13 278 l3 264 37 -70 c20 -38 52 -99 70 -134 37 -71
67 -98 94 -83 16 9 76 110 136 230 12 23 24 42 27 42 4 0 6 -117 6 -260 0
-286 -1 -280 60 -280 62 0 60 -16 60 387 1 408 0 413 -59 413 -17 0 -41 -7
-53 -15 -20 -14 -75 -107 -158 -267 -17 -32 -33 -58 -37 -58 -4 0 -42 66 -84
148 -90 169 -108 192 -158 192 -26 0 -39 -6 -50 -22z"/>
</g>
</svg>
